<svg width="1440" height="967" viewBox="0 0 1440 967" fill="none" xmlns="http://www.w3.org/2000/svg">
<mask id="mask0_46_3" style="mask-type:alpha" maskUnits="userSpaceOnUse" x="0" y="0" width="1440" height="967">
<rect width="1440" height="967" fill="#FFE86E"/>
</mask>
<g mask="url(#mask0_46_3)">
<rect width="1440" height="977" fill="#FFD25F"/>
<g style="mix-blend-mode:color-burn" opacity="0.7">
<path style="mix-blend-mode:color-burn" opacity="0.7" d="M720.5 512.5L829.753 1435.64L732.266 1442L720.5 512.5Z" fill="black" fill-opacity="0.06"/>
<path style="mix-blend-mode:color-burn" opacity="0.7" d="M720.5 512.5L1019.37 1392.62L925.322 1419.12L720.5 512.5Z" fill="black" fill-opacity="0.06"/>
<path style="mix-blend-mode:color-burn" opacity="0.7" d="M720.5 512.5L1195.77 1311.38L1109.27 1356.88L720.5 512.5Z" fill="black" fill-opacity="0.06"/>
<path style="mix-blend-mode:color-burn" opacity="0.7" d="M720.5 512.5L1351.57 1195.14L1276.44 1257.6L720.5 512.5Z" fill="black" fill-opacity="0.06"/>
<path style="mix-blend-mode:color-burn" opacity="0.7" d="M720.5 512.5L1479.56 1048.79L1419.07 1125.54L720.5 512.5Z" fill="black" fill-opacity="0.06"/>
<path style="mix-blend-mode:color-burn" opacity="0.7" d="M720.5 512.5L1574.7 879.384L1531.46 967.03L720.5 512.5Z" fill="black" fill-opacity="0.06"/>
<path style="mix-blend-mode:color-burn" opacity="0.7" d="M720.5 512.5L1632.22 693.893L1608.16 788.6L720.5 512.5Z" fill="black" fill-opacity="0.06"/>
<path style="mix-blend-mode:color-burn" opacity="0.7" d="M720.5 512.5L1650 500.297L1646.17 597.923L720.5 512.5Z" fill="black" fill-opacity="0.06"/>
<path style="mix-blend-mode:color-burn" opacity="0.7" d="M720.5 512.5L1627.16 307.354L1643.68 403.673L720.5 512.5Z" fill="black" fill-opacity="0.06"/>
<path style="mix-blend-mode:color-burn" opacity="0.7" d="M720.5 512.5L1564.72 123.214L1600.89 213.998L720.5 512.5Z" fill="black" fill-opacity="0.06"/>
<path style="mix-blend-mode:color-burn" opacity="0.7" d="M720.5 512.5L1465.4 -43.7095L1519.7 37.5297L720.5 512.5Z" fill="black" fill-opacity="0.06"/>
<path style="mix-blend-mode:color-burn" opacity="0.7" d="M720.5 512.5L1333.4 -186.227L1403.34 -118.019L720.5 512.5Z" fill="black" fill-opacity="0.06"/>
<path style="mix-blend-mode:color-burn" opacity="0.7" d="M720.5 512.5L1174.73 -298.628L1257.35 -246.459L720.5 512.5Z" fill="black" fill-opacity="0.06"/>
<path style="mix-blend-mode:color-burn" opacity="0.7" d="M720.5 512.5L996.095 -375.291L1087.79 -341.47L720.5 512.5Z" fill="black" fill-opacity="0.06"/>
<path style="mix-blend-mode:color-burn" opacity="0.7" d="M720.5 512.5L805.61 -413.078L902.312 -399L720.5 512.5Z" fill="black" fill-opacity="0.06"/>
<path style="mix-blend-mode:color-burn" opacity="0.7" d="M720.5 512.5L611.247 -410.637L708.734 -417L720.5 512.5Z" fill="black" fill-opacity="0.06"/>
<path style="mix-blend-mode:color-burn" opacity="0.7" d="M720.5 512.5L421.634 -367.62L515.678 -394.119L720.5 512.5Z" fill="black" fill-opacity="0.06"/>
<path style="mix-blend-mode:color-burn" opacity="0.7" d="M720.5 512.5L245.226 -286.381L331.73 -331.882L720.5 512.5Z" fill="black" fill-opacity="0.06"/>
<path style="mix-blend-mode:color-burn" opacity="0.7" d="M720.5 512.5L89.4302 -170.144L164.561 -232.599L720.5 512.5Z" fill="black" fill-opacity="0.06"/>
<path style="mix-blend-mode:color-burn" opacity="0.7" d="M720.5 512.5L-38.5619 -23.7919L21.926 -100.542L720.5 512.5Z" fill="black" fill-opacity="0.06"/>
<path style="mix-blend-mode:color-burn" opacity="0.7" d="M720.5 512.5L-133.695 145.573L-90.4647 57.9702L720.5 512.5Z" fill="black" fill-opacity="0.06"/>
<path style="mix-blend-mode:color-burn" opacity="0.7" d="M720.5 512.5L-191.22 331.107L-167.164 236.4L720.5 512.5Z" fill="black" fill-opacity="0.06"/>
<path style="mix-blend-mode:color-burn" opacity="0.7" d="M720.5 512.5L-209 524.747L-205.165 427.077L720.5 512.5Z" fill="black" fill-opacity="0.06"/>
<path style="mix-blend-mode:color-burn" opacity="0.7" d="M720.5 512.5L-186.165 717.646L-202.681 621.327L720.5 512.5Z" fill="black" fill-opacity="0.06"/>
<path style="mix-blend-mode:color-burn" opacity="0.7" d="M720.5 512.5L-123.716 901.786L-159.886 811.002L720.5 512.5Z" fill="black" fill-opacity="0.06"/>
<path style="mix-blend-mode:color-burn" opacity="0.7" d="M720.5 512.5L-24.3987 1068.71L-78.6547 987.47L720.5 512.5Z" fill="black" fill-opacity="0.06"/>
<path style="mix-blend-mode:color-burn" opacity="0.7" d="M720.5 512.5L107.646 1211.23L37.6581 1143.02L720.5 512.5Z" fill="black" fill-opacity="0.06"/>
<path style="mix-blend-mode:color-burn" opacity="0.7" d="M720.5 512.5L266.274 1323.63L183.648 1271.46L720.5 512.5Z" fill="black" fill-opacity="0.06"/>
<path style="mix-blend-mode:color-burn" opacity="0.7" d="M720.5 512.5L444.905 1400.29L353.215 1366.47L720.5 512.5Z" fill="black" fill-opacity="0.06"/>
<path style="mix-blend-mode:color-burn" opacity="0.7" d="M720.5 512.5L635.39 1438.08L538.688 1424.04L720.5 512.5Z" fill="black" fill-opacity="0.06"/>
</g>
</g>
</svg>
